# xmcd
#
# Track frame offsets:
#	150
#	18215
#	37310
#	54251
#	71701
#	82351
#	104208
#	122512
#	139226
#	162692
#
# Disc length: 2355 seconds
#
# Revision: 0
# Processed by: cddbd v1.5.2PL0 Copyright (c) Steve Scherf et al.
# Submitted via: EZCDAudioConverter 5.4.0.1
#
DISCID=9809310a
DTITLE=Jenny Rost - Demos
DYEAR=1900
DGENRE=
TTITLE0=Feeling Good
TTITLE1=Cum on over here
TTITLE2=The Eye of the Tiger
TTITLE3=Is it real?
TTITLE4=What a wonderful world
TTITLE5=What is love?
TTITLE6=Stranger than fiction
TTITLE7=The Eye of the Tiger (Rough)
TTITLE8=Want to be alone
TTITLE9=I like that body
EXTD=
EXTT0=
EXTT1=
EXTT2=
EXTT3=
EXTT4=
EXTT5=
EXTT6=
EXTT7=
EXTT8=
EXTT9=
PLAYORDER=
